#!OML:ASF E:\id_vita\Project 1\Capture day 1\Session 1\Male1.ASF
:FULLY-SPECIFIED
:DEGREES
413
root 10.425 16.1081 1.06272 -67.1278 95.326 -69.9258
lowerback -3.58227 -2.7097 -8.79161
upperback 2.58163 -3.00838 -1.2999
thorax 5.11299 -1.74542 3.31067
lowerneck -8.47079 1.10932 7.5016
upperneck 7.73231 0.693925 -1.18385
head 4.13756 0.52875 -1.70665
rclavicle -3.10353e-014 -1.19271e-014
rhumerus -32.6174 -17.7568 -80.3288
rradius 15.031
rwrist 16.0598
rhand -25.5446 36.9812
rfingers 7.12502
rthumb 0.985544 7.00373
lclavicle -3.10353e-014 -1.19271e-014
lhumerus -11.7817 6.81393 83.5403
lradius 24.3621
lwrist 1.03071
lhand -14.0563 45.3219
lfingers 7.12502
lthumb 12.0749 74.9535
rfemur -25.9879 -1.29731 16.0258
rtibia 56.7774
rfoot -15.5189 -4.26233
rtoes 8.37666
lfemur -10.6489 4.44563 -28.776
ltibia 30.0766
lfoot -26.9818 -3.24174
ltoes -0.56079
414
root 10.5473 16.0933 1.0522 -66.8388 95.2629 -69.6484
lowerback -3.56125 -2.73768 -8.7137
upperback 2.51078 -3.06244 -1.2313
thorax 5.03148 -1.76722 3.33743
lowerneck -8.16606 1.12843 7.56253
upperneck 7.65032 0.751317 -1.31742
head 4.05249 0.550822 -1.7579
rclavicle 1.26725e-015 -2.44505e-014
rhumerus -32.8784 -17.3093 -80.2475
rradius 15.0837
rwrist 16.0649
rhand -25.6588 37.2097
rfingers 7.12502
rthumb 0.875292 7.23171
lclavicle 1.26725e-015 -2.44505e-014
lhumerus -11.3201 6.41463 83.7317
lradius 24.8115
lwrist 1.61526
lhand -13.9555 44.9103
lfingers 7.12502
lthumb 12.1721 74.5362
rfemur -26.5246 -1.16199 16.1662
rtibia 54.8241
rfoot -15.4128 -4.5246
rtoes 8.7104
lfemur -10.1398 4.1923 -28.7267
ltibia 30.0572
lfoot -27.2508 -2.67821
ltoes -0.977503
415
root 10.6681 16.0793 1.04303 -66.2913 95.0625 -69.1217
lowerback -3.56384 -2.78048 -8.53682
upperback 2.49358 -3.14013 -1.10101
thorax 5.02047 -1.80326 3.36869
lowerneck -8.31947 1.24497 7.76619
upperneck 8.23429 0.905159 -1.68502
head 3.86653 0.613637 -1.71788
rclavicle -4.39811e-015 -1.82882e-014
rhumerus -32.9014 -16.4082 -80.5241
rradius 15.4438
rwrist 15.0926
rhand -25.3469 36.8568
rfingers 7.12502
rthumb 1.17649 6.88031
lclavicle -4.39811e-015 -1.82882e-014
lhumerus -10.9037 5.80755 83.9035
lradius 25.5009
lwrist 2.34239
lhand -13.9884 44.8354
lfingers 7.12502
lthumb 12.1402 74.4632
rfemur -26.9629 -0.980999 16.4619
rtibia 52.6998
rfoot -15.1298 -5.17036
rtoes 8.51827
lfemur -9.57106 3.97448 -28.5299
ltibia 29.8668
lfoot -27.5356 -2.04667
ltoes -2.33302
416
root 10.7901 16.0765 1.03361 -67.3406 94.9808 -70.28
lowerback -3.71356 -2.83546 -8.49898
upperback 2.48111 -3.20611 -1.02895
thorax 5.10277 -1.83936 3.40986
lowerneck -8.54706 1.26892 7.5852
upperneck 8.31762 0.932183 -1.61853
head 3.92937 0.625376 -1.66616
rclavicle -2.43014e-014 -1.64991e-014
rhumerus -32.8723 -16.0485 -80.5828
rradius 15.4475
rwrist 14.7805
rhand -25.3997 37.309
rfingers 7.12502
rthumb 1.12557 7.33226
lclavicle -2.43014e-014 -1.64991e-014
lhumerus -10.4061 5.33866 84.019
lradius 26.1397
lwrist 2.88401
lhand -14.0918 44.5493
lfingers 7.12502
lthumb 12.0406 74.1829
rfemur -27.5328 -0.718991 16.528
rtibia 50.4329
rfoot -15.0265 -5.74156
rtoes 7.73321
lfemur -8.95783 3.77372 -28.5291
ltibia 29.455
lfoot -27.5779 -1.53666
ltoes -3.00951
417
root 10.9169 16.0829 1.02394 -69.626 95.1783 -72.695
lowerback -3.82964 -2.82699 -8.72817
upperback 2.39205 -3.17101 -1.07337
thorax 5.08269 -1.82491 3.49117
lowerneck -8.35847 1.09557 7.0725
upperneck 7.16566 0.73912 -1.19205
head 3.90797 0.522283 -1.62319
rclavicle 3.80176e-015 -9.54166e-015
rhumerus -33.0433 -15.8735 -80.5524
rradius 15.5278
rwrist 14.5513
rhand -25.2733 37.2552
rfingers 7.12502
rthumb 1.2476 7.27906
lclavicle 3.80176e-015 -9.54166e-015
lhumerus -10.0188 4.81676 84.1399
lradius 26.7114
lwrist 3.24361
lhand -14.0568 44.2301
lfingers 7.12502
lthumb 12.0744 73.8617
rfemur -28.0731 -0.508233 16.2272
rtibia 48.0295
rfoot -14.8262 -6.06942
rtoes 7.24482
lfemur -8.23847 3.60062 -28.8641
ltibia 28.8236
lfoot -27.5657 -1.2036
ltoes -2.86607
418
root 11.0479 16.0909 1.01609 -70.6684 95.3358 -73.8577
lowerback -3.92019 -2.80316 -8.89044
upperback 2.30865 -3.12194 -1.11305
thorax 5.04782 -1.80103 3.54287
lowerneck -8.24647 1.16044 7.56926
upperneck 7.68307 0.791981 -1.38974
head 4.08357 0.568004 -1.78228
rclavicle -6.70898e-015 1.05356e-014
rhumerus -33.2399 -15.7577 -80.5294
rradius 15.7339
rwrist 14.2155
rhand -25.0716 36.6316
rfingers 7.12502
rthumb 1.44245 6.65674
lclavicle -6.70898e-015 1.05356e-014
lhumerus -9.70089 4.04019 84.2599
lradius 27.3781
lwrist 3.69759
lhand -13.7803 44.7164
lfingers 7.12502
lthumb 12.3409 74.3322
rfemur -28.482 -0.361585 16.0199
rtibia 45.5202
rfoot -14.8378 -6.22465
rtoes 7.5905
lfemur -7.44459 3.47528 -29.0866
ltibia 28.0043
lfoot -27.5644 -1.06542
ltoes -2.77172
419
root 11.1762 16.1026 1.00805 -70.8948 95.2557 -74.1554
lowerback -3.92356 -2.82308 -8.7854
upperback 2.21701 -3.16421 -1.06569
thorax 4.95398 -1.81439 3.53298
lowerneck -8.33844 1.22926 7.60303
upperneck 7.8178 0.872226 -1.39854
head 4.15548 0.611562 -1.78815
rclavicle -8.97016e-015 -2.24627e-014
rhumerus -33.4898 -15.3195 -80.6054
rradius 16.0411
rwrist 13.676
rhand -25.0509 36.6985
rfingers 7.12502
rthumb 1.46242 6.72381
lclavicle -8.97016e-015 -2.24627e-014
lhumerus -9.41138 3.49763 84.3407
lradius 27.988
lwrist 3.94518
lhand -13.8507 44.863
lfingers 7.12502
lthumb 12.273 74.4828
rfemur -28.7909 -0.19941 16.1221
rtibia 42.9027
rfoot -15.1258 -6.38589
rtoes 7.46172
lfemur -6.57626 3.28235 -29.0299
ltibia 27.0708
lfoot -27.4205 -0.883496
ltoes -2.72012
420
root 11.3026 16.1113 1.00074 -72.0707 95.1585 -75.3661
lowerback -3.8564 -2.8279 -8.69784
upperback 2.11535 -3.19365 -1.00907
thorax 4.80944 -1.82024 3.54742
lowerneck -8.15801 1.32041 7.88885
upperneck 8.15516 1.01856 -1.82076
head 3.82243 0.665055 -1.77318
rclavicle 6.33626e-015 3.27995e-014
rhumerus -33.7685 -15.0122 -80.5729
rradius 16.2623
rwrist 13.4029
rhand -25.0548 36.9012
rfingers 7.12502
rthumb 1.45864 6.92648
lclavicle 6.33626e-015 3.27995e-014
lhumerus -9.13563 3.21148 84.4386
lradius 28.5092
lwrist 3.98552
lhand -14.1784 44.2511
lfingers 7.12502
lthumb 11.9571 73.8896
rfemur -28.954 0.0917755 16.2168
rtibia 40.2056
rfoot -14.8945 -6.66667
rtoes 6.94054
lfemur -5.64462 3.08504 -28.9935
ltibia 26.1083
lfoot -27.1489 -0.643818
ltoes -2.48685
421
root 11.433 16.1177 0.998503 -73.2533 95.1083 -76.5672
lowerback -3.93164 -2.85982 -8.73323
upperback 2.12886 -3.22729 -0.976752
thorax 4.87526 -1.84151 3.59339
lowerneck -8.45982 1.307 7.8028
upperneck 8.21268 0.982433 -1.81478
head 3.88726 0.644413 -1.7587
rclavicle 7.77745e-015 3.97569e-015
rhumerus -33.7266 -15.2881 -80.4057
rradius 16.1476
rwrist 13.778
rhand -25.1398 36.3587
rfingers 7.12502
rthumb 1.37659 6.38336
lclavicle 7.77745e-015 3.97569e-015
lhumerus -8.70161 2.92699 84.4727
lradius 28.9593
lwrist 4.1301
lhand -13.812 44.4934
lfingers 7.12502
lthumb 12.3104 74.111
rfemur -29.007 0.468301 16.2295
rtibia 37.4537
rfoot -13.7232 -6.92991
rtoes 6.86581
lfemur -4.68366 3.02681 -28.9635
ltibia 25.1692
lfoot -26.9705 -0.60683
ltoes -1.84676
422
root 11.5637 16.1237 0.999195 -73.1325 95.1686 -76.5185
lowerback -4.12035 -2.92518 -8.85165
upperback 2.19058 -3.28189 -0.98857
thorax 5.06273 -1.87991 3.62973
lowerneck -8.43003 1.3212 7.80711
upperneck 7.55396 0.978795 -1.57532
head 4.091 0.654608 -1.87844
rclavicle -3.18552e-014 -2.04748e-014
rhumerus -33.6013 -15.6415 -80.3136
rradius 16.0731
rwrist 14.1795
rhand -25.2323 36.4611
rfingers 7.12502
rthumb 1.28716 6.48524
lclavicle -3.18552e-014 -2.04748e-014
lhumerus -8.24403 2.41897 84.4355
lradius 29.4337
lwrist 4.32314
lhand -13.7375 44.5529
lfingers 7.12502
lthumb 12.3822 74.1662
rfemur -29.1083 0.739447 16.1449
rtibia 34.6942
rfoot -12.3332 -7.20208
rtoes 5.73003
lfemur -3.77936 2.9629 -28.984
ltibia 24.2315
lfoot -26.8866 -0.566705
ltoes -1.86997
